<?xml version="1.0" encoding="utf-8"?>
<!-- Generator: Adobe Illustrator 24.1.0, SVG Export Plug-In . SVG Version: 6.00 Build 0)  -->
<svg version="1.1" id="Layer_1" xmlns="http://www.w3.org/2000/svg" xmlns:xlink="http://www.w3.org/1999/xlink" x="0px" y="0px"
	 viewBox="0 0 2150 850" style="enable-background:new 0 0 2150 850;" xml:space="preserve">
<style type="text/css">
	.st0{display:none;}
	.st1{fill:#FFFFFF;}
</style>
<g id="L_CIRCLES" class="st0">
</g>
<g id="M_CIRCLES" class="st0">
</g>
<g id="S_CIRCLES" class="st0">
</g>
<g id="OUTLINE" class="st0">
</g>
<g id="INLINE" class="st0">
</g>
<g id="HORSE" class="st0">
</g>
<g id="ALL">
</g>
<g id="Layer_9">
</g>
<g id="Layer_10">
</g>
<polygon class="st1" points="31.4,174.8 132.6,174.8 132.6,452.6 191.4,452.6 191.4,174.8 292.7,174.8 292.7,125 31.4,125 "/>
<path class="st1" d="M420.1,203.4c-13.4-0.2-26.5,3.9-37.4,11.6c-10.9,7.7-18.7,18.7-23.1,32.9h-2.6v-40.9h-56.1v245.7h57.9V308.2
	c-0.2-9.7,2.3-19.2,7.2-27.6c4.7-8,11.6-14.5,19.7-18.8c8.7-4.6,18.5-6.9,28.4-6.7c5.1,0,10.2,0.4,15.3,1c3.9,0.4,7.8,1.2,11.6,2.3
	V205c-3.3-0.6-6.6-1-10-1.2C426.8,203.6,423.3,203.4,420.1,203.4z"/>
<path class="st1" d="M636.6,349.3c0,12.5-2.6,22.8-7.8,31.1c-4.8,7.9-11.6,14.3-19.8,18.6c-7.6,4.1-16.1,6.2-24.8,6.2
	c-13.9,0-25.1-4.5-33.7-13.7c-8.6-9.2-12.8-21.5-12.8-37.1V206.9H480v156.4c0,19.6,3.5,36.3,10.4,50.1c6.3,13.1,16.4,24.1,28.9,31.5
	c12.4,7.2,26.6,10.8,42.6,10.8c18.5,0,34-4.3,46.6-13.1c12.2-8.3,21.7-20,27.3-33.7h2.6v43.6h56.1V206.9h-57.9V349.3z"/>
<path class="st1" d="M873.1,312.6l-41.9-9c-12.5-2.9-21.4-6.5-26.8-11c-5.3-4.2-8.2-10.7-7.9-17.5c-0.1-8.3,3.9-15.1,12.1-20.3
	c8.2-5.2,18.3-7.9,30.3-7.8c7.8-0.2,15.5,1.3,22.7,4.3c5.8,2.6,10.8,6.5,14.8,11.4c3.6,4.4,6.2,9.6,7.7,15l52.8-5.8
	c-3.9-20.9-14.2-37.5-30.8-49.7c-16.6-12.2-39.3-18.4-68-18.4c-19.6,0-36.9,3.1-51.9,9.2c-15,6.2-26.6,14.8-35,25.9
	c-8.4,11.4-12.8,25.3-12.4,39.4c-0.1,17.9,5.5,32.7,16.8,44.3c11.3,11.7,28.7,20,52.3,24.9l41.9,8.8c11.3,2.4,19.6,6,25,10.6
	c5.2,4.3,8.2,10.7,8.1,17.4c0,8.3-4.2,15.3-12.5,20.9c-8.4,5.6-19.4,8.5-33.2,8.5c-13.3,0-24.2-2.8-32.5-8.5
	c-8.3-5.7-13.8-14.1-16.3-25.1l-56.5,5.5c3.5,22.6,14.4,40.2,32.8,52.8c18.3,12.6,42.5,18.9,72.6,18.9c20.5,0,38.6-3.3,54.4-9.9
	c15.8-6.6,28.1-15.8,37.1-27.5c8.9-11.8,13.6-26.1,13.5-40.9c-0.1-17.6-5.8-31.9-17.2-42.7C913.6,325.5,896.3,317.5,873.1,312.6z"/>
<path class="st1" d="M1095.9,406.4c-3.3,0.6-6.6,0.8-10,0.8c-4.5,0.1-8.9-0.7-13.1-2.2c-4.1-1.6-7.4-4.6-9.5-8.4
	c-2.4-4.1-3.6-10-3.6-17.8v-127h48.5v-44.8h-48.5v-58.8h-57.9v58.8h-34.9v44.8h34.9v136.7c-0.1,15.4,3.2,28.1,10,38.4
	c6.7,10.2,16.3,18.1,27.6,22.6c12.4,5,25.8,7.3,39.2,6.7c7-0.1,14-0.9,20.9-2.3c4.5-0.9,8.9-2.1,13.2-3.5l-9.8-45.2
	C1101.3,405.4,1098.9,405.8,1095.9,406.4z"/>
<rect x="1153.3" y="125" class="st1" width="57.9" height="327.6"/>
<path class="st1" d="M1300.5,109.2c-8.8-0.1-17.3,3.2-23.7,9.2c-12.3,11.1-13.2,30-2.1,42.2c0.7,0.8,1.4,1.5,2.1,2.1
	c13.4,12.3,34,12.3,47.3,0c6.2-5.6,9.8-13.6,9.7-22c0.1-8.5-3.5-16.6-9.8-22.3C1317.8,112.4,1309.3,109,1300.5,109.2z"/>
<rect x="1271.4" y="206.9" class="st1" width="57.9" height="245.7"/>
<path class="st1" d="M1565.3,214.6c-12.6-7.2-27.4-10.9-44.4-10.9c-18.3,0-33.7,4.1-46.1,12.2c-12.2,7.8-21.7,19.2-27.1,32.7h-2.9
	v-41.7h-55.3v245.7h57.9V308.7c0-11.8,2.2-22,6.6-30.3c4.1-8,10.5-14.6,18.3-19c8.2-4.5,17.5-6.8,26.9-6.6
	c14.9,0,26.6,4.6,35.1,13.9c8.5,9.3,12.7,22.1,12.7,38.6v147.4h57.9V296.2c0.1-19.6-3.3-36.3-10.3-50
	C1588.3,232.9,1578,221.9,1565.3,214.6z"/>
<path class="st1" d="M1848,233.4c-10.2-10-22.4-17.7-35.8-22.5c-13.8-4.9-28.3-7.4-42.9-7.3c-23.5,0-43.9,5.4-61.3,16.1
	c-17.5,10.8-31.5,26.3-40.6,44.7c-9.6,19.2-14.5,41.4-14.5,66.6c0,25.7,4.8,48,14.4,66.9c9.1,18.4,23.4,33.6,41.2,43.8
	c17.9,10.3,39.1,15.4,63.7,15.4c19.1,0,36-2.9,50.9-8.7c13.9-5.2,26.5-13.7,36.5-24.6c9.5-10.6,16.2-23.4,19.4-37.2l-54-6.1
	c-2.3,6.6-6.2,12.6-11.4,17.5c-5.1,4.7-11.1,8.4-17.7,10.6c-7.4,2.5-15.1,3.7-22.9,3.6c-11.5,0.3-22.9-2.5-33-8.1
	c-9.4-5.4-17.1-13.6-21.9-23.3c-5.1-9.8-7.6-21.6-7.8-35.3h171.2v-17.8c0-21.5-3-40.1-9-55.7C1867.4,257.6,1859,244.3,1848,233.4z
	 M1710.5,306.5c0.5-9.4,3-18.5,7.5-26.8c4.9-9.1,12.1-16.9,20.9-22.4c9.4-5.8,20.2-8.8,31.2-8.5c10.2-0.2,20.3,2.4,29.2,7.5
	c8.3,4.9,15.1,12,19.6,20.5c4.8,9.2,7.3,19.3,7.2,29.7H1710.5z"/>
<path class="st1" d="M2101.5,336.3c-11.4-10.9-28.7-18.9-51.9-23.8l-41.9-9c-12.5-2.9-21.4-6.5-26.8-11c-5.3-4.2-8.2-10.7-7.9-17.5
	c-0.1-8.3,3.9-15.1,12.1-20.3c8.2-5.2,18.3-7.9,30.3-7.8c7.8-0.2,15.5,1.3,22.7,4.3c5.8,2.6,10.8,6.5,14.8,11.4
	c3.6,4.4,6.2,9.6,7.7,15l52.8-5.8c-3.9-20.9-14.2-37.5-30.8-49.7c-16.6-12.2-39.3-18.4-68.1-18.4c-19.6,0-36.9,3.1-51.9,9.2
	c-15,6.2-26.6,14.8-35,25.9c-8.4,11.4-12.8,25.3-12.4,39.4c-0.1,17.9,5.5,32.7,16.8,44.3c11.3,11.7,28.6,20,52.2,24.9l41.9,8.8
	c11.3,2.4,19.6,6,25,10.6c5.2,4.3,8.2,10.7,8.1,17.4c0,8.3-4.2,15.3-12.5,20.9c-8.4,5.6-19.4,8.5-33.2,8.5
	c-13.3,0-24.1-2.8-32.5-8.5c-8.3-5.7-13.8-14.1-16.3-25.1l-56.4,5.5c3.5,22.6,14.4,40.2,32.8,52.8c18.3,12.6,42.5,19,72.6,19
	c20.5,0,38.6-3.3,54.4-9.9c15.8-6.6,28.1-15.8,37.1-27.5c8.9-11.8,13.6-26.1,13.5-40.9C2118.5,361.4,2112.8,347.2,2101.5,336.3z"/>
<polygon class="st1" points="585.8,625.2 514.9,625.5 515.4,739.8 532.6,739.8 532.4,689.9 581,689.7 581,674.9 532.4,675.1 
	532.2,640.3 585.9,640.1 "/>
<path class="st1" d="M664.6,623.3c-29.7,0.1-51.4,22.4-51.3,58.9s22.1,58.6,51.8,58.5c29.7-0.1,51.4-22.4,51.2-58.9
	C716.2,645.3,694.2,623.2,664.6,623.3z M665,725.1c-19.7,0-34.5-15-34.6-42.9s14.5-43,34.2-43.1c19.7-0.1,34.4,15,34.6,42.8
	S684.7,725,665,725.1L665,725.1z"/>
<path class="st1" d="M823.4,624.3l0.3,73.8c0,15.5-10.6,26.7-28,26.8c-17.4,0.1-28.2-11.1-28.2-26.6l-0.3-73.8h-17.2l0.3,75.2
	c0.1,24,18.1,41,45.5,40.8c27.3-0.1,45.4-17.2,45.3-41.2l-0.1-75.2L823.4,624.3z"/>
<polygon class="st1" points="954.7,623.7 955.1,707.7 954,707.7 895.5,624 879.5,624.1 880,738.4 897.2,738.3 896.9,654.5 
	898,654.5 956.4,738.1 972.3,738 971.8,623.7 "/>
<path class="st1" d="M1049.3,623.4l-38.2,0.2l0.5,114.3l37.1-0.2c34.8-0.1,54.9-21.9,54.8-57.5
	C1103.2,644.5,1082.9,623.2,1049.3,623.4z M1047.6,722.7h-18.8l-0.3-84.2l19.9-0.1c25-0.1,38,14.8,38.1,41.8
	C1086.5,707.1,1073.6,722.5,1047.6,722.7L1047.6,722.7z"/>
<path class="st1" d="M1161,622.9l-40.7,114.5h18.3l10.4-30.3l44.7-0.2l10.6,30.2l18.3-0.1L1181,622.9L1161,622.9z M1153.9,692.5
	l16.7-48.8h0.9l17,48.7L1153.9,692.5z"/>
<polygon class="st1" points="1318.4,622.3 1229.9,622.7 1230,637.5 1265.6,637.4 1266,736.9 1283.2,736.8 1282.8,637.3 
	1318.5,637.2 "/>
<rect x="1349.5" y="622.1" transform="matrix(1 -4.014247e-03 4.014247e-03 1 -2.7157 5.4574)" class="st1" width="17.2" height="114.3"/>
<path class="st1" d="M1453.2,620.2c-29.7,0.1-51.4,22.4-51.3,58.9c0.2,36.6,22.1,58.6,51.8,58.5s51.4-22.4,51.2-58.9
	C1504.7,642.2,1482.8,620.1,1453.2,620.2z M1453.6,721.9c-19.7,0.1-34.4-15-34.6-42.8c-0.1-27.9,14.6-43,34.2-43.1
	c19.6-0.1,34.5,15,34.6,42.8C1487.9,706.6,1473.2,721.8,1453.6,721.9z"/>
<polygon class="st1" points="1631.3,621.1 1614.3,621.1 1614.6,705.1 1613.5,705.1 1555,621.4 1539.1,621.4 1539.5,735.8 
	1556.8,735.7 1556.4,651.9 1557.5,651.8 1616,735.5 1631.8,735.4 "/>
</svg>
