<?xml version="1.0" encoding="utf-8"?>
<!-- Generator: Adobe Illustrator 24.1.0, SVG Export Plug-In . SVG Version: 6.00 Build 0)  -->
<svg version="1.1" id="Layer_1" xmlns="http://www.w3.org/2000/svg" xmlns:xlink="http://www.w3.org/1999/xlink" x="0px" y="0px"
	 viewBox="0 0 2150 850" style="enable-background:new 0 0 2150 850;" xml:space="preserve">
<style type="text/css">
	.st0{display:none;}
	.st1{fill:#12121F;}
</style>
<g id="L_CIRCLES" class="st0">
</g>
<g id="M_CIRCLES" class="st0">
</g>
<g id="S_CIRCLES" class="st0">
</g>
<g id="TEXT">
</g>
<g id="OUTLINE" class="st0">
</g>
<g id="INLINE" class="st0">
</g>
<g id="HORSE" class="st0">
</g>
<g id="ALL">
</g>
<g id="Layer_9">
</g>
<polygon class="st1" points="25.7,173.4 127.5,173.4 127.5,452.7 186.6,452.7 186.6,173.4 288.4,173.4 288.4,123.4 25.7,123.4 "/>
<path class="st1" d="M416.5,202.2c-13.5-0.2-26.7,3.9-37.7,11.7c-11,7.8-18.8,18.8-23.2,33H353v-41.2h-56.4v247h58.2V307.6
	c-0.2-9.7,2.3-19.4,7.2-27.8c4.8-8,11.6-14.5,19.8-18.9c8.8-4.6,18.6-7,28.5-6.8c5.1,0,10.3,0.4,15.4,1c4,0.4,7.9,1.2,11.7,2.3
	v-53.7c-3.3-0.6-6.7-1-10.1-1.2C423.3,202.4,419.7,202.2,416.5,202.2z"/>
<path class="st1" d="M634.2,348.8c0,12.5-2.6,23-7.8,31.3c-4.8,7.9-11.7,14.4-19.9,18.7c-7.7,4.1-16.2,6.3-24.9,6.3
	c-13.9,0-25.2-4.6-33.8-13.8C539.2,382,535,369.7,535,354V205.7h-58.2V363c0,19.7,3.5,36.5,10.4,50.4c6.4,13.2,16.4,24.2,29,31.7
	c12.4,7.2,26.7,10.8,42.8,10.8c18.6,0,34.2-4.4,46.9-13.2c12.3-8.3,21.9-20.1,27.4-33.9h2.6v43.9h56.4v-247h-58.2V348.8z"/>
<path class="st1" d="M872,312l-42.1-9c-12.6-2.9-21.5-6.6-26.9-11.1c-5.3-4.3-8.2-10.8-8-17.6c-0.1-8.3,3.9-15.1,12.1-20.4
	c8.2-5.3,18.4-7.9,30.5-7.9c7.8-0.2,15.6,1.3,22.8,4.4c5.8,2.6,10.9,6.5,14.9,11.4c3.6,4.5,6.2,9.6,7.8,15.1l53.1-5.8
	c-4-21-14.3-37.7-30.9-50c-16.7-12.3-39.5-18.5-68.4-18.5c-19.7,0-37.1,3.1-52.2,9.2c-15,6.2-26.8,14.8-35.2,26.1
	c-8.5,11.4-12.9,25.4-12.5,39.7c-0.1,18,5.5,32.8,16.9,44.6c11.4,11.7,28.9,20.1,52.6,25l42.1,8.8c11.4,2.4,19.8,6,25.1,10.6
	c5.3,4.3,8.3,10.8,8.1,17.5c0,8.4-4.2,15.4-12.6,21c-8.4,5.7-19.5,8.5-33.4,8.6c-13.4,0-24.3-2.9-32.7-8.6
	c-8.4-5.7-13.8-14.1-16.4-25.2l-56.8,5.5c3.5,22.7,14.5,40.4,33,53.1c18.4,12.7,42.8,19.1,73,19c20.6,0,38.8-3.3,54.7-10
	c15.9-6.7,28.3-15.9,37.3-27.7c8.9-11.8,13.7-26.3,13.5-41.1c-0.1-17.7-5.9-32-17.3-42.9C912.7,325,895.3,316.9,872,312z"/>
<path class="st1" d="M1096.1,406.3c-3.3,0.6-6.7,0.8-10.1,0.8c-4.5,0.1-9-0.7-13.2-2.2c-4.1-1.6-7.5-4.6-9.6-8.5
	c-2.4-4.1-3.6-10.1-3.6-17.9V250.7h48.7v-45h-48.8v-59.1h-58.2v59.1h-35.1v45h35.1v137.4c-0.1,15.4,3.3,28.2,10,38.5
	c6.7,10.2,16.4,18.2,27.7,22.8c12.5,5,25.9,7.3,39.4,6.8c7.1-0.1,14.1-0.9,21-2.3c4.5-0.9,8.9-2.1,13.3-3.5l-9.8-45.5
	C1101.4,405.2,1099.1,405.7,1096.1,406.3z"/>
<rect x="1153.7" y="123.4" class="st1" width="58.2" height="329.3"/>
<path class="st1" d="M1301.7,107.5c-8.8-0.1-17.4,3.2-23.8,9.2c-12.3,11.1-13.4,30.1-2.2,42.5c0.7,0.8,1.4,1.5,2.2,2.2
	c13.5,12.4,34.2,12.4,47.6,0c6.3-5.6,9.9-13.7,9.9-22.1c0.1-8.5-3.5-16.7-9.9-22.4C1319,110.7,1310.5,107.4,1301.7,107.5z"/>
<rect x="1272.4" y="205.7" class="st1" width="58.2" height="247"/>
<path class="st1" d="M1568,213.5c-12.7-7.3-27.6-10.9-44.6-10.9c-18.4,0-33.9,4.1-46.4,12.2c-12.3,7.9-21.8,19.3-27.3,32.9h-2.9
	v-41.9h-55.6v247h58.2V308c0-11.9,2.2-22.1,6.7-30.5c4.2-8.1,10.6-14.7,18.5-19.2c8.3-4.6,17.6-6.9,27.1-6.7c15,0,26.8,4.7,35.3,14
	c8.5,9.3,12.8,22.3,12.8,38.8v148.2h58.2V295.5c0.1-19.7-3.4-36.5-10.4-50.3C1591.1,231.9,1580.8,220.8,1568,213.5z"/>
<path class="st1" d="M1852.2,232.4c-10.2-10.1-22.5-17.8-36-22.6c-13.9-4.9-28.5-7.4-43.2-7.3c-23.6,0-44.1,5.4-61.6,16.2
	c-17.6,10.9-31.7,26.4-40.8,45c-9.7,19.3-14.6,41.6-14.5,67c0,25.8,4.8,48.3,14.5,67.3c9.1,18.5,23.5,33.8,41.4,44
	c18,10.4,39.3,15.5,64.1,15.5c19.2,0,36.2-2.9,51.1-8.8c14-5.3,26.6-13.7,36.7-24.8c9.6-10.6,16.3-23.5,19.5-37.4l-54.3-6.1
	c-2.4,6.7-6.3,12.7-11.4,17.6c-5.1,4.8-11.2,8.4-17.8,10.7c-7.4,2.5-15.2,3.7-23,3.6c-11.6,0.3-23-2.5-33.1-8.1
	c-9.5-5.5-17.2-13.6-22-23.5c-5.1-9.9-7.7-21.7-7.8-35.4h172v-17.9c0-21.6-3-40.3-9-56C1871.6,256.7,1863.2,243.4,1852.2,232.4z
	 M1714,305.8c0.5-9.4,3-18.6,7.5-26.9c4.9-9.2,12.2-17,21-22.5c9.4-5.8,20.3-8.8,31.3-8.6c10.3-0.2,20.5,2.4,29.4,7.6
	c8.3,4.9,15.1,12.1,19.7,20.6c4.8,9.2,7.3,19.4,7.2,29.8H1714z"/>
<path class="st1" d="M2107,335.9c-11.4-11-28.8-19-52.2-24l-42.1-9c-12.5-2.9-21.5-6.6-26.9-11.1c-5.3-4.2-8.3-10.8-8-17.6
	c-0.1-8.3,3.9-15.1,12.1-20.4c8.2-5.3,18.4-7.9,30.5-7.9c7.8-0.2,15.6,1.3,22.8,4.4c5.8,2.6,10.9,6.5,14.9,11.4
	c3.6,4.5,6.2,9.6,7.8,15.1l53.1-5.8c-4-21-14.3-37.7-31-50c-16.7-12.3-39.5-18.5-68.4-18.5c-19.7,0-37.1,3.1-52.2,9.2
	c-15.1,6.2-26.8,14.8-35.2,26.1c-8.5,11.4-12.9,25.4-12.5,39.7c-0.1,18,5.5,32.8,16.9,44.6c11.4,11.7,28.9,20.1,52.6,25l42.1,8.8
	c11.3,2.4,19.7,6,25.1,10.6c5.3,4.3,8.3,10.8,8.1,17.5c0,8.4-4.2,15.4-12.6,21c-8.4,5.7-19.5,8.5-33.4,8.6
	c-13.4,0-24.3-2.9-32.6-8.6c-8.4-5.7-13.8-14.1-16.4-25.2l-56.8,5.5c3.5,22.7,14.5,40.4,33,53.1c18.4,12.7,42.8,19.1,73,19.1
	c20.6,0,38.8-3.3,54.7-10s28.3-15.9,37.3-27.7c8.9-11.8,13.7-26.3,13.5-41.1C2124.2,361.1,2118.4,346.7,2107,335.9z"/>
<polygon class="st1" points="583.2,626.3 511.9,626.6 512.3,741.5 529.7,741.5 529.5,691.4 578.3,691.2 578.2,676.3 529.4,676.5 
	529.3,641.5 583.2,641.2 "/>
<path class="st1" d="M662.4,624.4c-29.9,0.1-51.7,22.5-51.6,59.3c0.1,36.8,22.2,59,52.1,58.8c29.9-0.1,51.7-22.5,51.5-59.3
	C714.2,646.5,692.1,624.3,662.4,624.4z M662.8,726.7c-19.8,0-34.6-15.1-34.7-43.1c-0.1-28,14.6-43.3,34.4-43.3
	c19.8-0.1,34.6,15.1,34.7,43.1C697.3,711.3,682.6,726.6,662.8,726.7L662.8,726.7z"/>
<path class="st1" d="M822,625.4l0.3,74.2c0,15.6-10.7,26.9-28.2,26.9s-28.3-11.1-28.4-26.8l-0.3-74.2h-17.3l0.3,75.6
	c0.1,24.1,18.2,41.2,45.7,41.1c27.5-0.1,45.6-17.3,45.5-41.4l-0.2-75.5L822,625.4z"/>
<polygon class="st1" points="954.1,624.8 954.4,709.3 953.4,709.3 894.5,625.1 878.5,625.1 878.9,740.1 896.3,740 895.9,655.7 
	897,655.7 955.8,739.8 971.7,739.7 971.3,624.8 "/>
<path class="st1" d="M1049.1,624.5l-38.4,0.2l0.5,115l37.3-0.2c35-0.1,55.2-22,55.1-57.9C1103.3,645.7,1083,624.3,1049.1,624.5z
	 M1047.4,724.3h-18.9l-0.3-84.7l20-0.1c25.1-0.1,38.2,14.9,38.3,42C1086.6,708.6,1073.6,724.2,1047.4,724.3L1047.4,724.3z"/>
<path class="st1" d="M1161.4,624l-40.9,115.1h18.4l10.4-30.5l44.9-0.2l10.6,30.4l18.4-0.1L1181.5,624L1161.4,624z M1154.3,694
	l16.8-49.1h0.9l17.2,49L1154.3,694z"/>
<polygon class="st1" points="1319.7,623.4 1230.7,623.7 1230.8,638.7 1266.6,638.5 1267,738.6 1284.3,738.5 1283.9,638.5 
	1319.8,638.3 "/>
<rect x="1351" y="623.2" transform="matrix(1 -4.014247e-03 4.014247e-03 1 -2.7213 5.4636)" class="st1" width="17.3" height="115"/>
<path class="st1" d="M1455.2,621.3c-29.9,0.1-51.7,22.5-51.6,59.3c0.2,36.8,22.2,59,52,58.8c29.9-0.1,51.7-22.5,51.5-59.3
	C1507.1,643.3,1485,621.2,1455.2,621.3z M1455.6,723.5c-19.8,0.1-34.6-15.1-34.7-43.1c-0.1-28,14.6-43.3,34.4-43.4
	c19.8-0.1,34.6,15.1,34.7,43.1S1475.4,723.4,1455.6,723.5z"/>
<polygon class="st1" points="1634.4,622.1 1617.2,622.2 1617.5,706.6 1616.4,706.6 1557.6,622.4 1541.6,622.5 1542,737.5 
	1559.4,737.4 1559,653.1 1560.1,653.1 1618.9,737.2 1634.8,737.1 "/>
</svg>
